<svg width="20" height="21" viewBox="0 0 20 21" fill="none" xmlns="http://www.w3.org/2000/svg">
<path d="M7 10.5L9 12.5L13 8.5" stroke="#606161" stroke-width="1.5" stroke-linecap="round" stroke-linejoin="round"/>
<path d="M10 1.5C12.3358 3.56658 15.3845 4.64257 18.5 4.5C18.9536 6.04302 19.0924 7.66147 18.9081 9.25918C18.7239 10.8569 18.2203 12.4013 17.4274 13.8005C16.6345 15.1998 15.5684 16.4254 14.2925 17.4045C13.0165 18.3836 11.5568 19.0962 10 19.5C8.44321 19.0962 6.98348 18.3836 5.70755 17.4045C4.43161 16.4254 3.36551 15.1998 2.5726 13.8005C1.77968 12.4013 1.27614 10.8569 1.09188 9.25918C0.907619 7.66147 1.04641 6.04302 1.5 4.5C4.61553 4.64257 7.66417 3.56658 10 1.5Z" stroke="#606161" stroke-width="1.5" stroke-linecap="round" stroke-linejoin="round"/>
</svg>
